G04 MADE WITH FRITZING*
G04 WWW.FRITZING.ORG*
G04 DOUBLE SIDED*
G04 HOLES PLATED*
G04 CONTOUR ON CENTER OF CONTOUR VECTOR*
%ASAXBY*%
%FSLAX23Y23*%
%MOIN*%
%OFA0B0*%
%SFA1.0B1.0*%
%ADD10C,0.082472*%
%ADD11C,0.082445*%
%ADD12C,0.082417*%
%ADD13C,0.088000*%
%ADD14C,0.085000*%
%ADD15C,0.049370*%
%ADD16R,0.403701X1.584800*%
%ADD17R,0.085000X0.085000*%
%ADD18R,0.001000X0.001000*%
%LNMASK1*%
G90*
G70*
G54D10*
X606Y3147D03*
X106Y3847D03*
X106Y3747D03*
X106Y3647D03*
X106Y3547D03*
X106Y3447D03*
G54D11*
X106Y3347D03*
G54D10*
X106Y3147D03*
G54D11*
X606Y3847D03*
G54D12*
X606Y3747D03*
G54D11*
X606Y3647D03*
G54D10*
X606Y3547D03*
G54D11*
X606Y3447D03*
G54D12*
X606Y3347D03*
G54D13*
X2072Y350D03*
X1972Y350D03*
X1872Y350D03*
X1772Y350D03*
X1672Y350D03*
X1572Y350D03*
X1472Y350D03*
X1372Y350D03*
X1272Y350D03*
X1172Y350D03*
X1072Y350D03*
X972Y350D03*
X872Y350D03*
X772Y350D03*
X672Y350D03*
X572Y350D03*
X472Y350D03*
X372Y350D03*
X272Y350D03*
X2072Y350D03*
X1972Y350D03*
X1872Y350D03*
X1772Y350D03*
X1672Y350D03*
X1572Y350D03*
X1472Y350D03*
X1372Y350D03*
X1272Y350D03*
X1172Y350D03*
X1072Y350D03*
X972Y350D03*
X872Y350D03*
X772Y350D03*
X672Y350D03*
X572Y350D03*
X472Y350D03*
X372Y350D03*
X272Y350D03*
X272Y250D03*
X372Y250D03*
X472Y250D03*
X572Y250D03*
X672Y250D03*
X772Y250D03*
X872Y250D03*
X972Y250D03*
X1072Y250D03*
X1172Y250D03*
X1272Y250D03*
X1372Y250D03*
X1472Y250D03*
X1572Y250D03*
X1672Y250D03*
X1772Y250D03*
X1872Y250D03*
X1972Y250D03*
X2072Y250D03*
G54D10*
X1828Y3147D03*
X1328Y3847D03*
X1328Y3747D03*
X1328Y3647D03*
X1328Y3547D03*
X1328Y3447D03*
G54D11*
X1328Y3347D03*
G54D10*
X1328Y3147D03*
G54D11*
X1828Y3847D03*
G54D12*
X1828Y3747D03*
G54D11*
X1828Y3647D03*
G54D10*
X1828Y3547D03*
G54D11*
X1828Y3447D03*
G54D12*
X1828Y3347D03*
G54D10*
X3051Y3147D03*
X2551Y3847D03*
X2551Y3747D03*
X2551Y3647D03*
X2551Y3547D03*
X2551Y3447D03*
G54D11*
X2551Y3347D03*
G54D10*
X2551Y3147D03*
G54D11*
X3051Y3847D03*
G54D12*
X3051Y3747D03*
G54D11*
X3051Y3647D03*
G54D10*
X3051Y3547D03*
G54D11*
X3051Y3447D03*
G54D12*
X3051Y3347D03*
G54D10*
X606Y2036D03*
X106Y2736D03*
X106Y2636D03*
X106Y2536D03*
X106Y2436D03*
X106Y2336D03*
G54D11*
X106Y2236D03*
G54D10*
X106Y2036D03*
G54D11*
X606Y2736D03*
G54D12*
X606Y2636D03*
G54D11*
X606Y2536D03*
G54D10*
X606Y2436D03*
G54D11*
X606Y2336D03*
G54D12*
X606Y2236D03*
G54D10*
X1828Y2036D03*
X1328Y2736D03*
X1328Y2636D03*
X1328Y2536D03*
X1328Y2436D03*
X1328Y2336D03*
G54D11*
X1328Y2236D03*
G54D10*
X1328Y2036D03*
G54D11*
X1828Y2736D03*
G54D12*
X1828Y2636D03*
G54D11*
X1828Y2536D03*
G54D10*
X1828Y2436D03*
G54D11*
X1828Y2336D03*
G54D12*
X1828Y2236D03*
G54D10*
X3051Y2036D03*
X2551Y2736D03*
X2551Y2636D03*
X2551Y2536D03*
X2551Y2436D03*
X2551Y2336D03*
G54D11*
X2551Y2236D03*
G54D10*
X2551Y2036D03*
G54D11*
X3051Y2736D03*
G54D12*
X3051Y2636D03*
G54D11*
X3051Y2536D03*
G54D10*
X3051Y2436D03*
G54D11*
X3051Y2336D03*
G54D12*
X3051Y2236D03*
G54D10*
X606Y925D03*
X106Y1625D03*
X106Y1525D03*
X106Y1425D03*
X106Y1325D03*
X106Y1225D03*
G54D11*
X106Y1125D03*
G54D10*
X106Y925D03*
G54D11*
X606Y1625D03*
G54D12*
X606Y1525D03*
G54D11*
X606Y1425D03*
G54D10*
X606Y1325D03*
G54D11*
X606Y1225D03*
G54D12*
X606Y1125D03*
G54D10*
X1828Y925D03*
X1328Y1625D03*
X1328Y1525D03*
X1328Y1425D03*
X1328Y1325D03*
X1328Y1225D03*
G54D11*
X1328Y1125D03*
G54D10*
X1328Y925D03*
G54D11*
X1828Y1625D03*
G54D12*
X1828Y1525D03*
G54D11*
X1828Y1425D03*
G54D10*
X1828Y1325D03*
G54D11*
X1828Y1225D03*
G54D12*
X1828Y1125D03*
G54D10*
X3051Y925D03*
X2551Y1625D03*
X2551Y1525D03*
X2551Y1425D03*
X2551Y1325D03*
X2551Y1225D03*
G54D11*
X2551Y1125D03*
G54D10*
X2551Y925D03*
G54D11*
X3051Y1625D03*
G54D12*
X3051Y1525D03*
G54D11*
X3051Y1425D03*
G54D10*
X3051Y1325D03*
G54D11*
X3051Y1225D03*
G54D12*
X3051Y1125D03*
G54D13*
X831Y3649D03*
X831Y3549D03*
X831Y3449D03*
X831Y3349D03*
X2054Y3649D03*
X2054Y3549D03*
X2054Y3449D03*
X2054Y3349D03*
X3276Y3649D03*
X3276Y3549D03*
X3276Y3449D03*
X3276Y3349D03*
X831Y2538D03*
X831Y2438D03*
X831Y2338D03*
X831Y2238D03*
X2054Y2538D03*
X2054Y2438D03*
X2054Y2338D03*
X2054Y2238D03*
X3276Y2538D03*
X3276Y2438D03*
X3276Y2338D03*
X3276Y2238D03*
X831Y1427D03*
X831Y1327D03*
X831Y1227D03*
X831Y1127D03*
X2054Y1427D03*
X2054Y1327D03*
X2054Y1227D03*
X2054Y1127D03*
X3276Y1427D03*
X3276Y1327D03*
X3276Y1227D03*
X3276Y1127D03*
X3724Y444D03*
X3624Y444D03*
X3724Y244D03*
X3624Y244D03*
X2544Y144D03*
X2544Y244D03*
X2217Y150D03*
X2217Y250D03*
G54D14*
X2233Y506D03*
X2233Y706D03*
X2678Y506D03*
X2678Y706D03*
X3122Y506D03*
X3122Y706D03*
G54D13*
X2878Y144D03*
X2878Y244D03*
X3211Y144D03*
X3211Y244D03*
G54D15*
X272Y508D03*
G54D16*
X3689Y1389D03*
X3686Y3087D03*
G54D17*
X2233Y506D03*
X2678Y506D03*
X3122Y506D03*
G54D18*
X99Y3288D02*
X112Y3288D01*
X599Y3288D02*
X612Y3288D01*
X1321Y3288D02*
X1334Y3288D01*
X1822Y3288D02*
X1834Y3288D01*
X2544Y3288D02*
X2556Y3288D01*
X3044Y3288D02*
X3056Y3288D01*
X95Y3287D02*
X116Y3287D01*
X595Y3287D02*
X616Y3287D01*
X1317Y3287D02*
X1338Y3287D01*
X1817Y3287D02*
X1838Y3287D01*
X2539Y3287D02*
X2560Y3287D01*
X3039Y3287D02*
X3060Y3287D01*
X92Y3286D02*
X119Y3286D01*
X592Y3286D02*
X619Y3286D01*
X1314Y3286D02*
X1342Y3286D01*
X1814Y3286D02*
X1841Y3286D01*
X2536Y3286D02*
X2564Y3286D01*
X3036Y3286D02*
X3063Y3286D01*
X89Y3285D02*
X122Y3285D01*
X589Y3285D02*
X622Y3285D01*
X1311Y3285D02*
X1344Y3285D01*
X1811Y3285D02*
X1844Y3285D01*
X2533Y3285D02*
X2566Y3285D01*
X3033Y3285D02*
X3066Y3285D01*
X87Y3284D02*
X124Y3284D01*
X587Y3284D02*
X624Y3284D01*
X1309Y3284D02*
X1346Y3284D01*
X1809Y3284D02*
X1846Y3284D01*
X2531Y3284D02*
X2568Y3284D01*
X3031Y3284D02*
X3068Y3284D01*
X85Y3283D02*
X126Y3283D01*
X585Y3283D02*
X626Y3283D01*
X1307Y3283D02*
X1348Y3283D01*
X1807Y3283D02*
X1848Y3283D01*
X2530Y3283D02*
X2570Y3283D01*
X3029Y3283D02*
X3070Y3283D01*
X84Y3282D02*
X127Y3282D01*
X584Y3282D02*
X627Y3282D01*
X1306Y3282D02*
X1349Y3282D01*
X1806Y3282D02*
X1849Y3282D01*
X2528Y3282D02*
X2571Y3282D01*
X3028Y3282D02*
X3071Y3282D01*
X82Y3281D02*
X129Y3281D01*
X582Y3281D02*
X629Y3281D01*
X1304Y3281D02*
X1351Y3281D01*
X1804Y3281D02*
X1851Y3281D01*
X2526Y3281D02*
X2573Y3281D01*
X3026Y3281D02*
X3073Y3281D01*
X81Y3280D02*
X130Y3280D01*
X581Y3280D02*
X630Y3280D01*
X1303Y3280D02*
X1352Y3280D01*
X1803Y3280D02*
X1852Y3280D01*
X2525Y3280D02*
X2574Y3280D01*
X3025Y3280D02*
X3074Y3280D01*
X80Y3279D02*
X132Y3279D01*
X580Y3279D02*
X631Y3279D01*
X1302Y3279D02*
X1354Y3279D01*
X1802Y3279D02*
X1854Y3279D01*
X2524Y3279D02*
X2576Y3279D01*
X3024Y3279D02*
X3076Y3279D01*
X79Y3278D02*
X133Y3278D01*
X578Y3278D02*
X633Y3278D01*
X1301Y3278D02*
X1355Y3278D01*
X1801Y3278D02*
X1855Y3278D01*
X2523Y3278D02*
X2577Y3278D01*
X3023Y3278D02*
X3077Y3278D01*
X77Y3277D02*
X134Y3277D01*
X577Y3277D02*
X634Y3277D01*
X1299Y3277D02*
X1356Y3277D01*
X1799Y3277D02*
X1856Y3277D01*
X2521Y3277D02*
X2578Y3277D01*
X3021Y3277D02*
X3078Y3277D01*
X76Y3276D02*
X135Y3276D01*
X576Y3276D02*
X635Y3276D01*
X1298Y3276D02*
X1357Y3276D01*
X1798Y3276D02*
X1857Y3276D01*
X2521Y3276D02*
X2579Y3276D01*
X3020Y3276D02*
X3079Y3276D01*
X76Y3275D02*
X136Y3275D01*
X575Y3275D02*
X636Y3275D01*
X1298Y3275D02*
X1358Y3275D01*
X1798Y3275D02*
X1858Y3275D01*
X2520Y3275D02*
X2580Y3275D01*
X3020Y3275D02*
X3080Y3275D01*
X75Y3274D02*
X137Y3274D01*
X575Y3274D02*
X636Y3274D01*
X1297Y3274D02*
X1359Y3274D01*
X1797Y3274D02*
X1859Y3274D01*
X2519Y3274D02*
X2581Y3274D01*
X3019Y3274D02*
X3081Y3274D01*
X74Y3273D02*
X137Y3273D01*
X574Y3273D02*
X637Y3273D01*
X1296Y3273D02*
X1359Y3273D01*
X1796Y3273D02*
X1859Y3273D01*
X2518Y3273D02*
X2581Y3273D01*
X3018Y3273D02*
X3081Y3273D01*
X73Y3272D02*
X138Y3272D01*
X573Y3272D02*
X638Y3272D01*
X1295Y3272D02*
X1360Y3272D01*
X1795Y3272D02*
X1860Y3272D01*
X2517Y3272D02*
X2582Y3272D01*
X3017Y3272D02*
X3082Y3272D01*
X72Y3271D02*
X139Y3271D01*
X572Y3271D02*
X639Y3271D01*
X1294Y3271D02*
X1361Y3271D01*
X1794Y3271D02*
X1861Y3271D01*
X2516Y3271D02*
X2583Y3271D01*
X3016Y3271D02*
X3083Y3271D01*
X72Y3270D02*
X140Y3270D01*
X572Y3270D02*
X639Y3270D01*
X1294Y3270D02*
X1362Y3270D01*
X1794Y3270D02*
X1861Y3270D01*
X2516Y3270D02*
X2584Y3270D01*
X3016Y3270D02*
X3084Y3270D01*
X71Y3269D02*
X140Y3269D01*
X571Y3269D02*
X640Y3269D01*
X1293Y3269D02*
X1362Y3269D01*
X1793Y3269D02*
X1862Y3269D01*
X2515Y3269D02*
X2584Y3269D01*
X3015Y3269D02*
X3084Y3269D01*
X70Y3268D02*
X141Y3268D01*
X570Y3268D02*
X641Y3268D01*
X1293Y3268D02*
X1363Y3268D01*
X1792Y3268D02*
X1863Y3268D01*
X2515Y3268D02*
X2585Y3268D01*
X3014Y3268D02*
X3085Y3268D01*
X70Y3267D02*
X141Y3267D01*
X570Y3267D02*
X641Y3267D01*
X1292Y3267D02*
X1363Y3267D01*
X1792Y3267D02*
X1863Y3267D01*
X2514Y3267D02*
X2585Y3267D01*
X3014Y3267D02*
X3085Y3267D01*
X69Y3266D02*
X142Y3266D01*
X569Y3266D02*
X642Y3266D01*
X1291Y3266D02*
X1364Y3266D01*
X1791Y3266D02*
X1864Y3266D01*
X2513Y3266D02*
X2586Y3266D01*
X3013Y3266D02*
X3086Y3266D01*
X69Y3265D02*
X142Y3265D01*
X569Y3265D02*
X642Y3265D01*
X1291Y3265D02*
X1364Y3265D01*
X1791Y3265D02*
X1864Y3265D01*
X2513Y3265D02*
X2586Y3265D01*
X3013Y3265D02*
X3086Y3265D01*
X68Y3264D02*
X143Y3264D01*
X568Y3264D02*
X643Y3264D01*
X1290Y3264D02*
X1365Y3264D01*
X1790Y3264D02*
X1865Y3264D01*
X2512Y3264D02*
X2587Y3264D01*
X3012Y3264D02*
X3087Y3264D01*
X68Y3263D02*
X143Y3263D01*
X568Y3263D02*
X643Y3263D01*
X1290Y3263D02*
X1365Y3263D01*
X1790Y3263D02*
X1865Y3263D01*
X2512Y3263D02*
X2587Y3263D01*
X3012Y3263D02*
X3087Y3263D01*
X68Y3262D02*
X144Y3262D01*
X568Y3262D02*
X644Y3262D01*
X1290Y3262D02*
X1366Y3262D01*
X1790Y3262D02*
X1866Y3262D01*
X2512Y3262D02*
X2588Y3262D01*
X3012Y3262D02*
X3088Y3262D01*
X67Y3261D02*
X144Y3261D01*
X567Y3261D02*
X644Y3261D01*
X1289Y3261D02*
X1366Y3261D01*
X1789Y3261D02*
X1866Y3261D01*
X2511Y3261D02*
X2588Y3261D01*
X3011Y3261D02*
X3088Y3261D01*
X67Y3260D02*
X144Y3260D01*
X567Y3260D02*
X644Y3260D01*
X1289Y3260D02*
X1366Y3260D01*
X1789Y3260D02*
X1866Y3260D01*
X2511Y3260D02*
X2588Y3260D01*
X3011Y3260D02*
X3088Y3260D01*
X67Y3259D02*
X145Y3259D01*
X567Y3259D02*
X645Y3259D01*
X1289Y3259D02*
X1367Y3259D01*
X1789Y3259D02*
X1867Y3259D01*
X2511Y3259D02*
X2589Y3259D01*
X3011Y3259D02*
X3089Y3259D01*
X66Y3258D02*
X145Y3258D01*
X566Y3258D02*
X645Y3258D01*
X1288Y3258D02*
X1367Y3258D01*
X1788Y3258D02*
X1867Y3258D01*
X2510Y3258D02*
X2589Y3258D01*
X3010Y3258D02*
X3089Y3258D01*
X66Y3257D02*
X145Y3257D01*
X566Y3257D02*
X645Y3257D01*
X1288Y3257D02*
X1367Y3257D01*
X1788Y3257D02*
X1867Y3257D01*
X2510Y3257D02*
X2589Y3257D01*
X3010Y3257D02*
X3089Y3257D01*
X66Y3256D02*
X145Y3256D01*
X566Y3256D02*
X645Y3256D01*
X1288Y3256D02*
X1367Y3256D01*
X1788Y3256D02*
X1867Y3256D01*
X2510Y3256D02*
X2589Y3256D01*
X3010Y3256D02*
X3089Y3256D01*
X66Y3255D02*
X146Y3255D01*
X566Y3255D02*
X645Y3255D01*
X1288Y3255D02*
X1368Y3255D01*
X1788Y3255D02*
X1868Y3255D01*
X2510Y3255D02*
X2590Y3255D01*
X3010Y3255D02*
X3090Y3255D01*
X66Y3254D02*
X146Y3254D01*
X565Y3254D02*
X646Y3254D01*
X1288Y3254D02*
X1368Y3254D01*
X1787Y3254D02*
X1868Y3254D01*
X2510Y3254D02*
X2590Y3254D01*
X3010Y3254D02*
X3090Y3254D01*
X65Y3253D02*
X146Y3253D01*
X565Y3253D02*
X646Y3253D01*
X1287Y3253D02*
X1368Y3253D01*
X1787Y3253D02*
X1868Y3253D01*
X2509Y3253D02*
X2590Y3253D01*
X3009Y3253D02*
X3090Y3253D01*
X65Y3252D02*
X146Y3252D01*
X565Y3252D02*
X646Y3252D01*
X1287Y3252D02*
X1368Y3252D01*
X1787Y3252D02*
X1868Y3252D01*
X2509Y3252D02*
X2590Y3252D01*
X3009Y3252D02*
X3090Y3252D01*
X65Y3251D02*
X146Y3251D01*
X565Y3251D02*
X646Y3251D01*
X1287Y3251D02*
X1368Y3251D01*
X1787Y3251D02*
X1868Y3251D01*
X2509Y3251D02*
X2590Y3251D01*
X3009Y3251D02*
X3090Y3251D01*
X65Y3250D02*
X146Y3250D01*
X565Y3250D02*
X646Y3250D01*
X1287Y3250D02*
X1368Y3250D01*
X1787Y3250D02*
X1868Y3250D01*
X2509Y3250D02*
X2590Y3250D01*
X3009Y3250D02*
X3090Y3250D01*
X65Y3249D02*
X146Y3249D01*
X565Y3249D02*
X646Y3249D01*
X1287Y3249D02*
X1368Y3249D01*
X1787Y3249D02*
X1868Y3249D01*
X2509Y3249D02*
X2590Y3249D01*
X3009Y3249D02*
X3090Y3249D01*
X65Y3248D02*
X146Y3248D01*
X565Y3248D02*
X646Y3248D01*
X1287Y3248D02*
X1368Y3248D01*
X1787Y3248D02*
X1868Y3248D01*
X2509Y3248D02*
X2590Y3248D01*
X3009Y3248D02*
X3090Y3248D01*
X65Y3247D02*
X146Y3247D01*
X565Y3247D02*
X646Y3247D01*
X1287Y3247D02*
X1368Y3247D01*
X1787Y3247D02*
X1868Y3247D01*
X2509Y3247D02*
X2590Y3247D01*
X3009Y3247D02*
X3090Y3247D01*
X65Y3246D02*
X146Y3246D01*
X565Y3246D02*
X646Y3246D01*
X1287Y3246D02*
X1368Y3246D01*
X1787Y3246D02*
X1868Y3246D01*
X2509Y3246D02*
X2590Y3246D01*
X3009Y3246D02*
X3090Y3246D01*
X65Y3245D02*
X146Y3245D01*
X565Y3245D02*
X646Y3245D01*
X1287Y3245D02*
X1368Y3245D01*
X1787Y3245D02*
X1868Y3245D01*
X2509Y3245D02*
X2590Y3245D01*
X3009Y3245D02*
X3090Y3245D01*
X65Y3244D02*
X146Y3244D01*
X565Y3244D02*
X646Y3244D01*
X1287Y3244D02*
X1368Y3244D01*
X1787Y3244D02*
X1868Y3244D01*
X2509Y3244D02*
X2590Y3244D01*
X3009Y3244D02*
X3090Y3244D01*
X65Y3243D02*
X146Y3243D01*
X565Y3243D02*
X646Y3243D01*
X1287Y3243D02*
X1368Y3243D01*
X1787Y3243D02*
X1868Y3243D01*
X2509Y3243D02*
X2590Y3243D01*
X3009Y3243D02*
X3090Y3243D01*
X65Y3242D02*
X146Y3242D01*
X565Y3242D02*
X646Y3242D01*
X1287Y3242D02*
X1368Y3242D01*
X1787Y3242D02*
X1868Y3242D01*
X2509Y3242D02*
X2590Y3242D01*
X3009Y3242D02*
X3090Y3242D01*
X65Y3241D02*
X146Y3241D01*
X565Y3241D02*
X646Y3241D01*
X1288Y3241D02*
X1368Y3241D01*
X1787Y3241D02*
X1868Y3241D01*
X2510Y3241D02*
X2590Y3241D01*
X3010Y3241D02*
X3090Y3241D01*
X66Y3240D02*
X146Y3240D01*
X566Y3240D02*
X646Y3240D01*
X1288Y3240D02*
X1368Y3240D01*
X1788Y3240D02*
X1868Y3240D01*
X2510Y3240D02*
X2590Y3240D01*
X3010Y3240D02*
X3090Y3240D01*
X66Y3239D02*
X145Y3239D01*
X566Y3239D02*
X645Y3239D01*
X1288Y3239D02*
X1367Y3239D01*
X1788Y3239D02*
X1867Y3239D01*
X2510Y3239D02*
X2589Y3239D01*
X3010Y3239D02*
X3089Y3239D01*
X66Y3238D02*
X145Y3238D01*
X566Y3238D02*
X645Y3238D01*
X1288Y3238D02*
X1367Y3238D01*
X1788Y3238D02*
X1867Y3238D01*
X2510Y3238D02*
X2589Y3238D01*
X3010Y3238D02*
X3089Y3238D01*
X66Y3237D02*
X145Y3237D01*
X566Y3237D02*
X645Y3237D01*
X1288Y3237D02*
X1367Y3237D01*
X1788Y3237D02*
X1867Y3237D01*
X2510Y3237D02*
X2589Y3237D01*
X3010Y3237D02*
X3089Y3237D01*
X67Y3236D02*
X145Y3236D01*
X567Y3236D02*
X645Y3236D01*
X1289Y3236D02*
X1367Y3236D01*
X1789Y3236D02*
X1867Y3236D01*
X2511Y3236D02*
X2589Y3236D01*
X3011Y3236D02*
X3089Y3236D01*
X67Y3235D02*
X144Y3235D01*
X567Y3235D02*
X644Y3235D01*
X1289Y3235D02*
X1366Y3235D01*
X1789Y3235D02*
X1866Y3235D01*
X2511Y3235D02*
X2588Y3235D01*
X3011Y3235D02*
X3088Y3235D01*
X67Y3234D02*
X144Y3234D01*
X567Y3234D02*
X644Y3234D01*
X1289Y3234D02*
X1366Y3234D01*
X1789Y3234D02*
X1866Y3234D01*
X2511Y3234D02*
X2588Y3234D01*
X3011Y3234D02*
X3088Y3234D01*
X68Y3233D02*
X144Y3233D01*
X567Y3233D02*
X644Y3233D01*
X1290Y3233D02*
X1366Y3233D01*
X1790Y3233D02*
X1866Y3233D01*
X2512Y3233D02*
X2588Y3233D01*
X3012Y3233D02*
X3088Y3233D01*
X68Y3232D02*
X143Y3232D01*
X568Y3232D02*
X643Y3232D01*
X1290Y3232D02*
X1365Y3232D01*
X1790Y3232D02*
X1865Y3232D01*
X2512Y3232D02*
X2587Y3232D01*
X3012Y3232D02*
X3087Y3232D01*
X68Y3231D02*
X143Y3231D01*
X568Y3231D02*
X643Y3231D01*
X1290Y3231D02*
X1365Y3231D01*
X1790Y3231D02*
X1865Y3231D01*
X2512Y3231D02*
X2587Y3231D01*
X3012Y3231D02*
X3087Y3231D01*
X69Y3230D02*
X142Y3230D01*
X569Y3230D02*
X642Y3230D01*
X1291Y3230D02*
X1364Y3230D01*
X1791Y3230D02*
X1864Y3230D01*
X2513Y3230D02*
X2586Y3230D01*
X3013Y3230D02*
X3086Y3230D01*
X69Y3229D02*
X142Y3229D01*
X569Y3229D02*
X642Y3229D01*
X1291Y3229D02*
X1364Y3229D01*
X1791Y3229D02*
X1864Y3229D01*
X2513Y3229D02*
X2586Y3229D01*
X3013Y3229D02*
X3086Y3229D01*
X70Y3228D02*
X141Y3228D01*
X570Y3228D02*
X641Y3228D01*
X1292Y3228D02*
X1363Y3228D01*
X1792Y3228D02*
X1863Y3228D01*
X2514Y3228D02*
X2586Y3228D01*
X3014Y3228D02*
X3085Y3228D01*
X70Y3227D02*
X141Y3227D01*
X570Y3227D02*
X641Y3227D01*
X1292Y3227D02*
X1363Y3227D01*
X1792Y3227D02*
X1863Y3227D01*
X2514Y3227D02*
X2585Y3227D01*
X3014Y3227D02*
X3085Y3227D01*
X71Y3226D02*
X140Y3226D01*
X571Y3226D02*
X640Y3226D01*
X1293Y3226D02*
X1362Y3226D01*
X1793Y3226D02*
X1862Y3226D01*
X2515Y3226D02*
X2584Y3226D01*
X3015Y3226D02*
X3084Y3226D01*
X72Y3225D02*
X140Y3225D01*
X572Y3225D02*
X640Y3225D01*
X1294Y3225D02*
X1362Y3225D01*
X1794Y3225D02*
X1862Y3225D01*
X2516Y3225D02*
X2584Y3225D01*
X3016Y3225D02*
X3084Y3225D01*
X72Y3224D02*
X139Y3224D01*
X572Y3224D02*
X639Y3224D01*
X1294Y3224D02*
X1361Y3224D01*
X1794Y3224D02*
X1861Y3224D01*
X2516Y3224D02*
X2583Y3224D01*
X3016Y3224D02*
X3083Y3224D01*
X73Y3223D02*
X138Y3223D01*
X573Y3223D02*
X638Y3223D01*
X1295Y3223D02*
X1360Y3223D01*
X1795Y3223D02*
X1860Y3223D01*
X2517Y3223D02*
X2582Y3223D01*
X3017Y3223D02*
X3082Y3223D01*
X74Y3222D02*
X137Y3222D01*
X574Y3222D02*
X637Y3222D01*
X1296Y3222D02*
X1360Y3222D01*
X1796Y3222D02*
X1859Y3222D01*
X2518Y3222D02*
X2582Y3222D01*
X3018Y3222D02*
X3081Y3222D01*
X75Y3221D02*
X137Y3221D01*
X574Y3221D02*
X637Y3221D01*
X1297Y3221D02*
X1359Y3221D01*
X1797Y3221D02*
X1859Y3221D01*
X2519Y3221D02*
X2581Y3221D01*
X3019Y3221D02*
X3081Y3221D01*
X75Y3220D02*
X136Y3220D01*
X575Y3220D02*
X636Y3220D01*
X1297Y3220D02*
X1358Y3220D01*
X1797Y3220D02*
X1858Y3220D01*
X2519Y3220D02*
X2580Y3220D01*
X3019Y3220D02*
X3080Y3220D01*
X76Y3219D02*
X135Y3219D01*
X576Y3219D02*
X635Y3219D01*
X1298Y3219D02*
X1357Y3219D01*
X1798Y3219D02*
X1857Y3219D01*
X2520Y3219D02*
X2579Y3219D01*
X3020Y3219D02*
X3079Y3219D01*
X77Y3218D02*
X134Y3218D01*
X577Y3218D02*
X634Y3218D01*
X1299Y3218D02*
X1356Y3218D01*
X1799Y3218D02*
X1856Y3218D01*
X2521Y3218D02*
X2578Y3218D01*
X3021Y3218D02*
X3078Y3218D01*
X78Y3217D02*
X133Y3217D01*
X578Y3217D02*
X633Y3217D01*
X1300Y3217D02*
X1355Y3217D01*
X1800Y3217D02*
X1855Y3217D01*
X2522Y3217D02*
X2577Y3217D01*
X3022Y3217D02*
X3077Y3217D01*
X80Y3216D02*
X132Y3216D01*
X579Y3216D02*
X632Y3216D01*
X1302Y3216D02*
X1354Y3216D01*
X1802Y3216D02*
X1854Y3216D01*
X2524Y3216D02*
X2576Y3216D01*
X3024Y3216D02*
X3076Y3216D01*
X81Y3215D02*
X130Y3215D01*
X581Y3215D02*
X630Y3215D01*
X1303Y3215D02*
X1352Y3215D01*
X1803Y3215D02*
X1852Y3215D01*
X2525Y3215D02*
X2575Y3215D01*
X3025Y3215D02*
X3074Y3215D01*
X82Y3214D02*
X129Y3214D01*
X582Y3214D02*
X629Y3214D01*
X1304Y3214D02*
X1351Y3214D01*
X1804Y3214D02*
X1851Y3214D01*
X2526Y3214D02*
X2573Y3214D01*
X3026Y3214D02*
X3073Y3214D01*
X84Y3213D02*
X128Y3213D01*
X584Y3213D02*
X628Y3213D01*
X1306Y3213D02*
X1350Y3213D01*
X1806Y3213D02*
X1850Y3213D01*
X2528Y3213D02*
X2572Y3213D01*
X3028Y3213D02*
X3072Y3213D01*
X85Y3212D02*
X126Y3212D01*
X585Y3212D02*
X626Y3212D01*
X1307Y3212D02*
X1348Y3212D01*
X1807Y3212D02*
X1848Y3212D01*
X2529Y3212D02*
X2570Y3212D01*
X3029Y3212D02*
X3070Y3212D01*
X87Y3211D02*
X124Y3211D01*
X587Y3211D02*
X624Y3211D01*
X1309Y3211D02*
X1346Y3211D01*
X1809Y3211D02*
X1846Y3211D01*
X2531Y3211D02*
X2568Y3211D01*
X3031Y3211D02*
X3068Y3211D01*
X89Y3210D02*
X122Y3210D01*
X589Y3210D02*
X622Y3210D01*
X1311Y3210D02*
X1344Y3210D01*
X1811Y3210D02*
X1844Y3210D01*
X2533Y3210D02*
X2566Y3210D01*
X3033Y3210D02*
X3066Y3210D01*
X91Y3209D02*
X120Y3209D01*
X591Y3209D02*
X620Y3209D01*
X1313Y3209D02*
X1342Y3209D01*
X1813Y3209D02*
X1842Y3209D01*
X2535Y3209D02*
X2564Y3209D01*
X3035Y3209D02*
X3064Y3209D01*
X94Y3208D02*
X117Y3208D01*
X594Y3208D02*
X617Y3208D01*
X1316Y3208D02*
X1339Y3208D01*
X1816Y3208D02*
X1839Y3208D01*
X2538Y3208D02*
X2561Y3208D01*
X3038Y3208D02*
X3061Y3208D01*
X98Y3207D02*
X113Y3207D01*
X598Y3207D02*
X613Y3207D01*
X1321Y3207D02*
X1335Y3207D01*
X1821Y3207D02*
X1835Y3207D01*
X2543Y3207D02*
X2557Y3207D01*
X3043Y3207D02*
X3057Y3207D01*
X100Y2177D02*
X111Y2177D01*
X600Y2177D02*
X611Y2177D01*
X1322Y2177D02*
X1333Y2177D01*
X1822Y2177D02*
X1833Y2177D01*
X2544Y2177D02*
X2555Y2177D01*
X3044Y2177D02*
X3055Y2177D01*
X95Y2176D02*
X116Y2176D01*
X595Y2176D02*
X616Y2176D01*
X1317Y2176D02*
X1338Y2176D01*
X1817Y2176D02*
X1838Y2176D01*
X2539Y2176D02*
X2560Y2176D01*
X3039Y2176D02*
X3060Y2176D01*
X92Y2175D02*
X119Y2175D01*
X592Y2175D02*
X619Y2175D01*
X1314Y2175D02*
X1341Y2175D01*
X1814Y2175D02*
X1841Y2175D01*
X2536Y2175D02*
X2563Y2175D01*
X3036Y2175D02*
X3063Y2175D01*
X89Y2174D02*
X122Y2174D01*
X589Y2174D02*
X622Y2174D01*
X1311Y2174D02*
X1344Y2174D01*
X1811Y2174D02*
X1844Y2174D01*
X2534Y2174D02*
X2566Y2174D01*
X3033Y2174D02*
X3066Y2174D01*
X87Y2173D02*
X124Y2173D01*
X587Y2173D02*
X624Y2173D01*
X1309Y2173D02*
X1346Y2173D01*
X1809Y2173D02*
X1846Y2173D01*
X2531Y2173D02*
X2568Y2173D01*
X3031Y2173D02*
X3068Y2173D01*
X86Y2172D02*
X126Y2172D01*
X586Y2172D02*
X625Y2172D01*
X1308Y2172D02*
X1348Y2172D01*
X1808Y2172D02*
X1848Y2172D01*
X2530Y2172D02*
X2570Y2172D01*
X3030Y2172D02*
X3070Y2172D01*
X84Y2171D02*
X127Y2171D01*
X584Y2171D02*
X627Y2171D01*
X1306Y2171D02*
X1349Y2171D01*
X1806Y2171D02*
X1849Y2171D01*
X2528Y2171D02*
X2571Y2171D01*
X3028Y2171D02*
X3071Y2171D01*
X82Y2170D02*
X129Y2170D01*
X582Y2170D02*
X629Y2170D01*
X1305Y2170D02*
X1351Y2170D01*
X1804Y2170D02*
X1851Y2170D01*
X2527Y2170D02*
X2573Y2170D01*
X3027Y2170D02*
X3073Y2170D01*
X81Y2169D02*
X130Y2169D01*
X581Y2169D02*
X630Y2169D01*
X1303Y2169D02*
X1352Y2169D01*
X1803Y2169D02*
X1852Y2169D01*
X2525Y2169D02*
X2574Y2169D01*
X3025Y2169D02*
X3074Y2169D01*
X80Y2168D02*
X131Y2168D01*
X580Y2168D02*
X631Y2168D01*
X1302Y2168D02*
X1353Y2168D01*
X1802Y2168D02*
X1853Y2168D01*
X2524Y2168D02*
X2575Y2168D01*
X3024Y2168D02*
X3075Y2168D01*
X79Y2167D02*
X133Y2167D01*
X579Y2167D02*
X632Y2167D01*
X1301Y2167D02*
X1355Y2167D01*
X1801Y2167D02*
X1854Y2167D01*
X2523Y2167D02*
X2577Y2167D01*
X3023Y2167D02*
X3077Y2167D01*
X78Y2166D02*
X134Y2166D01*
X577Y2166D02*
X634Y2166D01*
X1300Y2166D02*
X1356Y2166D01*
X1800Y2166D02*
X1856Y2166D01*
X2522Y2166D02*
X2578Y2166D01*
X3022Y2166D02*
X3078Y2166D01*
X77Y2165D02*
X135Y2165D01*
X576Y2165D02*
X635Y2165D01*
X1299Y2165D02*
X1357Y2165D01*
X1798Y2165D02*
X1857Y2165D01*
X2521Y2165D02*
X2579Y2165D01*
X3021Y2165D02*
X3079Y2165D01*
X76Y2164D02*
X136Y2164D01*
X576Y2164D02*
X635Y2164D01*
X1298Y2164D02*
X1358Y2164D01*
X1798Y2164D02*
X1858Y2164D01*
X2520Y2164D02*
X2580Y2164D01*
X3020Y2164D02*
X3080Y2164D01*
X75Y2163D02*
X136Y2163D01*
X575Y2163D02*
X636Y2163D01*
X1297Y2163D02*
X1359Y2163D01*
X1797Y2163D02*
X1858Y2163D01*
X2519Y2163D02*
X2581Y2163D01*
X3019Y2163D02*
X3080Y2163D01*
X74Y2162D02*
X137Y2162D01*
X574Y2162D02*
X637Y2162D01*
X1296Y2162D02*
X1359Y2162D01*
X1796Y2162D02*
X1859Y2162D01*
X2518Y2162D02*
X2581Y2162D01*
X3018Y2162D02*
X3081Y2162D01*
X73Y2161D02*
X138Y2161D01*
X573Y2161D02*
X638Y2161D01*
X1295Y2161D02*
X1360Y2161D01*
X1795Y2161D02*
X1860Y2161D01*
X2517Y2161D02*
X2582Y2161D01*
X3017Y2161D02*
X3082Y2161D01*
X72Y2160D02*
X139Y2160D01*
X572Y2160D02*
X639Y2160D01*
X1294Y2160D02*
X1361Y2160D01*
X1794Y2160D02*
X1861Y2160D01*
X2517Y2160D02*
X2583Y2160D01*
X3016Y2160D02*
X3083Y2160D01*
X72Y2159D02*
X139Y2159D01*
X572Y2159D02*
X639Y2159D01*
X1294Y2159D02*
X1361Y2159D01*
X1794Y2159D02*
X1861Y2159D01*
X2516Y2159D02*
X2584Y2159D01*
X3016Y2159D02*
X3083Y2159D01*
X71Y2158D02*
X140Y2158D01*
X571Y2158D02*
X640Y2158D01*
X1293Y2158D02*
X1362Y2158D01*
X1793Y2158D02*
X1862Y2158D01*
X2515Y2158D02*
X2584Y2158D01*
X3015Y2158D02*
X3084Y2158D01*
X71Y2157D02*
X141Y2157D01*
X570Y2157D02*
X641Y2157D01*
X1293Y2157D02*
X1363Y2157D01*
X1793Y2157D02*
X1863Y2157D01*
X2515Y2157D02*
X2585Y2157D01*
X3015Y2157D02*
X3085Y2157D01*
X70Y2156D02*
X141Y2156D01*
X570Y2156D02*
X641Y2156D01*
X1292Y2156D02*
X1363Y2156D01*
X1792Y2156D02*
X1863Y2156D01*
X2514Y2156D02*
X2585Y2156D01*
X3014Y2156D02*
X3085Y2156D01*
X69Y2155D02*
X142Y2155D01*
X569Y2155D02*
X642Y2155D01*
X1291Y2155D02*
X1364Y2155D01*
X1791Y2155D02*
X1864Y2155D01*
X2513Y2155D02*
X2586Y2155D01*
X3013Y2155D02*
X3086Y2155D01*
X69Y2154D02*
X142Y2154D01*
X569Y2154D02*
X642Y2154D01*
X1291Y2154D02*
X1364Y2154D01*
X1791Y2154D02*
X1864Y2154D01*
X2513Y2154D02*
X2586Y2154D01*
X3013Y2154D02*
X3086Y2154D01*
X68Y2153D02*
X143Y2153D01*
X568Y2153D02*
X643Y2153D01*
X1290Y2153D02*
X1365Y2153D01*
X1790Y2153D02*
X1865Y2153D01*
X2513Y2153D02*
X2587Y2153D01*
X3012Y2153D02*
X3087Y2153D01*
X68Y2152D02*
X143Y2152D01*
X568Y2152D02*
X643Y2152D01*
X1290Y2152D02*
X1365Y2152D01*
X1790Y2152D02*
X1865Y2152D01*
X2512Y2152D02*
X2587Y2152D01*
X3012Y2152D02*
X3087Y2152D01*
X68Y2151D02*
X144Y2151D01*
X568Y2151D02*
X644Y2151D01*
X1290Y2151D02*
X1366Y2151D01*
X1790Y2151D02*
X1866Y2151D01*
X2512Y2151D02*
X2588Y2151D01*
X3012Y2151D02*
X3088Y2151D01*
X67Y2150D02*
X144Y2150D01*
X567Y2150D02*
X644Y2150D01*
X1289Y2150D02*
X1366Y2150D01*
X1789Y2150D02*
X1866Y2150D01*
X2511Y2150D02*
X2588Y2150D01*
X3011Y2150D02*
X3088Y2150D01*
X67Y2149D02*
X144Y2149D01*
X567Y2149D02*
X644Y2149D01*
X1289Y2149D02*
X1366Y2149D01*
X1789Y2149D02*
X1866Y2149D01*
X2511Y2149D02*
X2588Y2149D01*
X3011Y2149D02*
X3088Y2149D01*
X67Y2148D02*
X145Y2148D01*
X567Y2148D02*
X645Y2148D01*
X1289Y2148D02*
X1367Y2148D01*
X1789Y2148D02*
X1867Y2148D01*
X2511Y2148D02*
X2589Y2148D01*
X3011Y2148D02*
X3089Y2148D01*
X66Y2147D02*
X145Y2147D01*
X566Y2147D02*
X645Y2147D01*
X1288Y2147D02*
X1367Y2147D01*
X1788Y2147D02*
X1867Y2147D01*
X2510Y2147D02*
X2589Y2147D01*
X3010Y2147D02*
X3089Y2147D01*
X66Y2146D02*
X145Y2146D01*
X566Y2146D02*
X645Y2146D01*
X1288Y2146D02*
X1367Y2146D01*
X1788Y2146D02*
X1867Y2146D01*
X2510Y2146D02*
X2589Y2146D01*
X3010Y2146D02*
X3089Y2146D01*
X66Y2145D02*
X145Y2145D01*
X566Y2145D02*
X645Y2145D01*
X1288Y2145D02*
X1367Y2145D01*
X1788Y2145D02*
X1867Y2145D01*
X2510Y2145D02*
X2589Y2145D01*
X3010Y2145D02*
X3089Y2145D01*
X66Y2144D02*
X146Y2144D01*
X566Y2144D02*
X645Y2144D01*
X1288Y2144D02*
X1368Y2144D01*
X1788Y2144D02*
X1867Y2144D01*
X2510Y2144D02*
X2590Y2144D01*
X3010Y2144D02*
X3090Y2144D01*
X66Y2143D02*
X146Y2143D01*
X565Y2143D02*
X646Y2143D01*
X1288Y2143D02*
X1368Y2143D01*
X1787Y2143D02*
X1868Y2143D01*
X2510Y2143D02*
X2590Y2143D01*
X3010Y2143D02*
X3090Y2143D01*
X65Y2142D02*
X146Y2142D01*
X565Y2142D02*
X646Y2142D01*
X1287Y2142D02*
X1368Y2142D01*
X1787Y2142D02*
X1868Y2142D01*
X2509Y2142D02*
X2590Y2142D01*
X3009Y2142D02*
X3090Y2142D01*
X65Y2141D02*
X146Y2141D01*
X565Y2141D02*
X646Y2141D01*
X1287Y2141D02*
X1368Y2141D01*
X1787Y2141D02*
X1868Y2141D01*
X2509Y2141D02*
X2590Y2141D01*
X3009Y2141D02*
X3090Y2141D01*
X65Y2140D02*
X146Y2140D01*
X565Y2140D02*
X646Y2140D01*
X1287Y2140D02*
X1368Y2140D01*
X1787Y2140D02*
X1868Y2140D01*
X2509Y2140D02*
X2590Y2140D01*
X3009Y2140D02*
X3090Y2140D01*
X65Y2139D02*
X146Y2139D01*
X565Y2139D02*
X646Y2139D01*
X1287Y2139D02*
X1368Y2139D01*
X1787Y2139D02*
X1868Y2139D01*
X2509Y2139D02*
X2590Y2139D01*
X3009Y2139D02*
X3090Y2139D01*
X65Y2138D02*
X146Y2138D01*
X565Y2138D02*
X646Y2138D01*
X1287Y2138D02*
X1368Y2138D01*
X1787Y2138D02*
X1868Y2138D01*
X2509Y2138D02*
X2590Y2138D01*
X3009Y2138D02*
X3090Y2138D01*
X65Y2137D02*
X146Y2137D01*
X565Y2137D02*
X646Y2137D01*
X1287Y2137D02*
X1368Y2137D01*
X1787Y2137D02*
X1868Y2137D01*
X2509Y2137D02*
X2590Y2137D01*
X3009Y2137D02*
X3090Y2137D01*
X65Y2136D02*
X146Y2136D01*
X565Y2136D02*
X646Y2136D01*
X1287Y2136D02*
X1368Y2136D01*
X1787Y2136D02*
X1868Y2136D01*
X2509Y2136D02*
X2590Y2136D01*
X3009Y2136D02*
X3090Y2136D01*
X65Y2135D02*
X146Y2135D01*
X565Y2135D02*
X646Y2135D01*
X1287Y2135D02*
X1368Y2135D01*
X1787Y2135D02*
X1868Y2135D01*
X2509Y2135D02*
X2590Y2135D01*
X3009Y2135D02*
X3090Y2135D01*
X65Y2134D02*
X146Y2134D01*
X565Y2134D02*
X646Y2134D01*
X1287Y2134D02*
X1368Y2134D01*
X1787Y2134D02*
X1868Y2134D01*
X2509Y2134D02*
X2590Y2134D01*
X3009Y2134D02*
X3090Y2134D01*
X65Y2133D02*
X146Y2133D01*
X565Y2133D02*
X646Y2133D01*
X1287Y2133D02*
X1368Y2133D01*
X1787Y2133D02*
X1868Y2133D01*
X2509Y2133D02*
X2590Y2133D01*
X3009Y2133D02*
X3090Y2133D01*
X65Y2132D02*
X146Y2132D01*
X565Y2132D02*
X646Y2132D01*
X1287Y2132D02*
X1368Y2132D01*
X1787Y2132D02*
X1868Y2132D01*
X2509Y2132D02*
X2590Y2132D01*
X3009Y2132D02*
X3090Y2132D01*
X65Y2131D02*
X146Y2131D01*
X565Y2131D02*
X646Y2131D01*
X1287Y2131D02*
X1368Y2131D01*
X1787Y2131D02*
X1868Y2131D01*
X2509Y2131D02*
X2590Y2131D01*
X3009Y2131D02*
X3090Y2131D01*
X65Y2130D02*
X146Y2130D01*
X565Y2130D02*
X646Y2130D01*
X1288Y2130D02*
X1368Y2130D01*
X1787Y2130D02*
X1868Y2130D01*
X2510Y2130D02*
X2590Y2130D01*
X3009Y2130D02*
X3090Y2130D01*
X66Y2129D02*
X146Y2129D01*
X566Y2129D02*
X646Y2129D01*
X1288Y2129D02*
X1368Y2129D01*
X1788Y2129D02*
X1868Y2129D01*
X2510Y2129D02*
X2590Y2129D01*
X3010Y2129D02*
X3090Y2129D01*
X66Y2128D02*
X145Y2128D01*
X566Y2128D02*
X645Y2128D01*
X1288Y2128D02*
X1367Y2128D01*
X1788Y2128D02*
X1867Y2128D01*
X2510Y2128D02*
X2590Y2128D01*
X3010Y2128D02*
X3089Y2128D01*
X66Y2127D02*
X145Y2127D01*
X566Y2127D02*
X645Y2127D01*
X1288Y2127D02*
X1367Y2127D01*
X1788Y2127D02*
X1867Y2127D01*
X2510Y2127D02*
X2589Y2127D01*
X3010Y2127D02*
X3089Y2127D01*
X66Y2126D02*
X145Y2126D01*
X566Y2126D02*
X645Y2126D01*
X1288Y2126D02*
X1367Y2126D01*
X1788Y2126D02*
X1867Y2126D01*
X2510Y2126D02*
X2589Y2126D01*
X3010Y2126D02*
X3089Y2126D01*
X67Y2125D02*
X145Y2125D01*
X566Y2125D02*
X645Y2125D01*
X1289Y2125D02*
X1367Y2125D01*
X1789Y2125D02*
X1867Y2125D01*
X2511Y2125D02*
X2589Y2125D01*
X3011Y2125D02*
X3089Y2125D01*
X67Y2124D02*
X144Y2124D01*
X567Y2124D02*
X644Y2124D01*
X1289Y2124D02*
X1366Y2124D01*
X1789Y2124D02*
X1866Y2124D01*
X2511Y2124D02*
X2588Y2124D01*
X3011Y2124D02*
X3088Y2124D01*
X67Y2123D02*
X144Y2123D01*
X567Y2123D02*
X644Y2123D01*
X1289Y2123D02*
X1366Y2123D01*
X1789Y2123D02*
X1866Y2123D01*
X2511Y2123D02*
X2588Y2123D01*
X3011Y2123D02*
X3088Y2123D01*
X68Y2122D02*
X144Y2122D01*
X567Y2122D02*
X644Y2122D01*
X1290Y2122D02*
X1366Y2122D01*
X1789Y2122D02*
X1866Y2122D01*
X2512Y2122D02*
X2588Y2122D01*
X3012Y2122D02*
X3088Y2122D01*
X68Y2121D02*
X143Y2121D01*
X568Y2121D02*
X643Y2121D01*
X1290Y2121D02*
X1365Y2121D01*
X1790Y2121D02*
X1865Y2121D01*
X2512Y2121D02*
X2587Y2121D01*
X3012Y2121D02*
X3087Y2121D01*
X68Y2120D02*
X143Y2120D01*
X568Y2120D02*
X643Y2120D01*
X1290Y2120D02*
X1365Y2120D01*
X1790Y2120D02*
X1865Y2120D01*
X2512Y2120D02*
X2587Y2120D01*
X3012Y2120D02*
X3087Y2120D01*
X69Y2119D02*
X142Y2119D01*
X569Y2119D02*
X642Y2119D01*
X1291Y2119D02*
X1365Y2119D01*
X1791Y2119D02*
X1864Y2119D01*
X2513Y2119D02*
X2587Y2119D01*
X3013Y2119D02*
X3086Y2119D01*
X69Y2118D02*
X142Y2118D01*
X569Y2118D02*
X642Y2118D01*
X1291Y2118D02*
X1364Y2118D01*
X1791Y2118D02*
X1864Y2118D01*
X2513Y2118D02*
X2586Y2118D01*
X3013Y2118D02*
X3086Y2118D01*
X70Y2117D02*
X142Y2117D01*
X570Y2117D02*
X641Y2117D01*
X1292Y2117D02*
X1364Y2117D01*
X1792Y2117D02*
X1863Y2117D01*
X2514Y2117D02*
X2586Y2117D01*
X3014Y2117D02*
X3085Y2117D01*
X70Y2116D02*
X141Y2116D01*
X570Y2116D02*
X641Y2116D01*
X1292Y2116D02*
X1363Y2116D01*
X1792Y2116D02*
X1863Y2116D01*
X2514Y2116D02*
X2585Y2116D01*
X3014Y2116D02*
X3085Y2116D01*
X71Y2115D02*
X140Y2115D01*
X571Y2115D02*
X640Y2115D01*
X1293Y2115D02*
X1362Y2115D01*
X1793Y2115D02*
X1862Y2115D01*
X2515Y2115D02*
X2584Y2115D01*
X3015Y2115D02*
X3084Y2115D01*
X72Y2114D02*
X140Y2114D01*
X571Y2114D02*
X640Y2114D01*
X1294Y2114D02*
X1362Y2114D01*
X1794Y2114D02*
X1862Y2114D01*
X2516Y2114D02*
X2584Y2114D01*
X3016Y2114D02*
X3084Y2114D01*
X72Y2113D02*
X139Y2113D01*
X572Y2113D02*
X639Y2113D01*
X1294Y2113D02*
X1361Y2113D01*
X1794Y2113D02*
X1861Y2113D01*
X2516Y2113D02*
X2583Y2113D01*
X3016Y2113D02*
X3083Y2113D01*
X73Y2112D02*
X138Y2112D01*
X573Y2112D02*
X638Y2112D01*
X1295Y2112D02*
X1360Y2112D01*
X1795Y2112D02*
X1860Y2112D01*
X2517Y2112D02*
X2582Y2112D01*
X3017Y2112D02*
X3082Y2112D01*
X74Y2111D02*
X138Y2111D01*
X574Y2111D02*
X637Y2111D01*
X1296Y2111D02*
X1360Y2111D01*
X1796Y2111D02*
X1859Y2111D01*
X2518Y2111D02*
X2582Y2111D01*
X3018Y2111D02*
X3082Y2111D01*
X74Y2110D02*
X137Y2110D01*
X574Y2110D02*
X637Y2110D01*
X1296Y2110D02*
X1359Y2110D01*
X1796Y2110D02*
X1859Y2110D01*
X2519Y2110D02*
X2581Y2110D01*
X3018Y2110D02*
X3081Y2110D01*
X75Y2109D02*
X136Y2109D01*
X575Y2109D02*
X636Y2109D01*
X1297Y2109D02*
X1358Y2109D01*
X1797Y2109D02*
X1858Y2109D01*
X2519Y2109D02*
X2580Y2109D01*
X3019Y2109D02*
X3080Y2109D01*
X76Y2108D02*
X135Y2108D01*
X576Y2108D02*
X635Y2108D01*
X1298Y2108D02*
X1357Y2108D01*
X1798Y2108D02*
X1857Y2108D01*
X2520Y2108D02*
X2579Y2108D01*
X3020Y2108D02*
X3079Y2108D01*
X77Y2107D02*
X134Y2107D01*
X577Y2107D02*
X634Y2107D01*
X1299Y2107D02*
X1356Y2107D01*
X1799Y2107D02*
X1856Y2107D01*
X2521Y2107D02*
X2578Y2107D01*
X3021Y2107D02*
X3078Y2107D01*
X78Y2106D02*
X133Y2106D01*
X578Y2106D02*
X633Y2106D01*
X1300Y2106D02*
X1355Y2106D01*
X1800Y2106D02*
X1855Y2106D01*
X2522Y2106D02*
X2577Y2106D01*
X3022Y2106D02*
X3077Y2106D01*
X79Y2105D02*
X132Y2105D01*
X579Y2105D02*
X632Y2105D01*
X1301Y2105D02*
X1354Y2105D01*
X1801Y2105D02*
X1854Y2105D01*
X2523Y2105D02*
X2576Y2105D01*
X3023Y2105D02*
X3076Y2105D01*
X81Y2104D02*
X131Y2104D01*
X581Y2104D02*
X630Y2104D01*
X1303Y2104D02*
X1353Y2104D01*
X1803Y2104D02*
X1853Y2104D01*
X2525Y2104D02*
X2575Y2104D01*
X3025Y2104D02*
X3075Y2104D01*
X82Y2103D02*
X129Y2103D01*
X582Y2103D02*
X629Y2103D01*
X1304Y2103D02*
X1351Y2103D01*
X1804Y2103D02*
X1851Y2103D01*
X2526Y2103D02*
X2573Y2103D01*
X3026Y2103D02*
X3073Y2103D01*
X83Y2102D02*
X128Y2102D01*
X583Y2102D02*
X628Y2102D01*
X1305Y2102D02*
X1350Y2102D01*
X1805Y2102D02*
X1850Y2102D01*
X2527Y2102D02*
X2572Y2102D01*
X3027Y2102D02*
X3072Y2102D01*
X85Y2101D02*
X126Y2101D01*
X585Y2101D02*
X626Y2101D01*
X1307Y2101D02*
X1348Y2101D01*
X1807Y2101D02*
X1848Y2101D01*
X2529Y2101D02*
X2570Y2101D01*
X3029Y2101D02*
X3070Y2101D01*
X87Y2100D02*
X125Y2100D01*
X587Y2100D02*
X624Y2100D01*
X1309Y2100D02*
X1347Y2100D01*
X1809Y2100D02*
X1846Y2100D01*
X2531Y2100D02*
X2569Y2100D01*
X3031Y2100D02*
X3069Y2100D01*
X89Y2099D02*
X123Y2099D01*
X589Y2099D02*
X622Y2099D01*
X1311Y2099D02*
X1345Y2099D01*
X1811Y2099D02*
X1844Y2099D01*
X2533Y2099D02*
X2567Y2099D01*
X3033Y2099D02*
X3067Y2099D01*
X91Y2098D02*
X120Y2098D01*
X591Y2098D02*
X620Y2098D01*
X1313Y2098D02*
X1342Y2098D01*
X1813Y2098D02*
X1842Y2098D01*
X2535Y2098D02*
X2564Y2098D01*
X3035Y2098D02*
X3064Y2098D01*
X94Y2097D02*
X117Y2097D01*
X594Y2097D02*
X617Y2097D01*
X1316Y2097D02*
X1339Y2097D01*
X1816Y2097D02*
X1839Y2097D01*
X2538Y2097D02*
X2561Y2097D01*
X3038Y2097D02*
X3061Y2097D01*
X98Y2096D02*
X113Y2096D01*
X598Y2096D02*
X613Y2096D01*
X1320Y2096D02*
X1335Y2096D01*
X1820Y2096D02*
X1835Y2096D01*
X2542Y2096D02*
X2558Y2096D01*
X3042Y2096D02*
X3057Y2096D01*
X101Y1066D02*
X110Y1066D01*
X601Y1066D02*
X610Y1066D01*
X1323Y1066D02*
X1332Y1066D01*
X1823Y1066D02*
X1832Y1066D01*
X2545Y1066D02*
X2554Y1066D01*
X3045Y1066D02*
X3054Y1066D01*
X96Y1065D02*
X115Y1065D01*
X596Y1065D02*
X615Y1065D01*
X1318Y1065D02*
X1338Y1065D01*
X1818Y1065D02*
X1837Y1065D01*
X2540Y1065D02*
X2560Y1065D01*
X3040Y1065D02*
X3059Y1065D01*
X92Y1064D02*
X119Y1064D01*
X592Y1064D02*
X619Y1064D01*
X1314Y1064D02*
X1341Y1064D01*
X1814Y1064D02*
X1841Y1064D01*
X2536Y1064D02*
X2563Y1064D01*
X3036Y1064D02*
X3063Y1064D01*
X90Y1063D02*
X122Y1063D01*
X590Y1063D02*
X621Y1063D01*
X1312Y1063D02*
X1344Y1063D01*
X1812Y1063D02*
X1843Y1063D01*
X2534Y1063D02*
X2566Y1063D01*
X3034Y1063D02*
X3066Y1063D01*
X88Y1062D02*
X124Y1062D01*
X588Y1062D02*
X623Y1062D01*
X1310Y1062D02*
X1346Y1062D01*
X1810Y1062D02*
X1846Y1062D01*
X2532Y1062D02*
X2568Y1062D01*
X3032Y1062D02*
X3068Y1062D01*
X86Y1061D02*
X125Y1061D01*
X586Y1061D02*
X625Y1061D01*
X1308Y1061D02*
X1347Y1061D01*
X1808Y1061D02*
X1847Y1061D01*
X2530Y1061D02*
X2570Y1061D01*
X3030Y1061D02*
X3069Y1061D01*
X84Y1060D02*
X127Y1060D01*
X584Y1060D02*
X627Y1060D01*
X1306Y1060D02*
X1349Y1060D01*
X1806Y1060D02*
X1849Y1060D01*
X2528Y1060D02*
X2571Y1060D01*
X3028Y1060D02*
X3071Y1060D01*
X83Y1059D02*
X129Y1059D01*
X583Y1059D02*
X629Y1059D01*
X1305Y1059D02*
X1351Y1059D01*
X1805Y1059D02*
X1851Y1059D01*
X2527Y1059D02*
X2573Y1059D01*
X3027Y1059D02*
X3073Y1059D01*
X81Y1058D02*
X130Y1058D01*
X581Y1058D02*
X630Y1058D01*
X1303Y1058D02*
X1352Y1058D01*
X1803Y1058D02*
X1852Y1058D01*
X2525Y1058D02*
X2574Y1058D01*
X3025Y1058D02*
X3074Y1058D01*
X80Y1057D02*
X131Y1057D01*
X580Y1057D02*
X631Y1057D01*
X1302Y1057D02*
X1353Y1057D01*
X1802Y1057D02*
X1853Y1057D01*
X2524Y1057D02*
X2575Y1057D01*
X3024Y1057D02*
X3075Y1057D01*
X79Y1056D02*
X132Y1056D01*
X579Y1056D02*
X632Y1056D01*
X1301Y1056D02*
X1354Y1056D01*
X1801Y1056D02*
X1854Y1056D01*
X2523Y1056D02*
X2577Y1056D01*
X3023Y1056D02*
X3076Y1056D01*
X78Y1055D02*
X134Y1055D01*
X578Y1055D02*
X633Y1055D01*
X1300Y1055D02*
X1356Y1055D01*
X1800Y1055D02*
X1856Y1055D01*
X2522Y1055D02*
X2578Y1055D01*
X3022Y1055D02*
X3078Y1055D01*
X77Y1054D02*
X135Y1054D01*
X577Y1054D02*
X635Y1054D01*
X1299Y1054D02*
X1357Y1054D01*
X1799Y1054D02*
X1857Y1054D01*
X2521Y1054D02*
X2579Y1054D01*
X3021Y1054D02*
X3079Y1054D01*
X76Y1053D02*
X135Y1053D01*
X576Y1053D02*
X635Y1053D01*
X1298Y1053D02*
X1358Y1053D01*
X1798Y1053D02*
X1857Y1053D01*
X2520Y1053D02*
X2580Y1053D01*
X3020Y1053D02*
X3079Y1053D01*
X75Y1052D02*
X136Y1052D01*
X575Y1052D02*
X636Y1052D01*
X1297Y1052D02*
X1358Y1052D01*
X1797Y1052D02*
X1858Y1052D01*
X2519Y1052D02*
X2580Y1052D01*
X3019Y1052D02*
X3080Y1052D01*
X74Y1051D02*
X137Y1051D01*
X574Y1051D02*
X637Y1051D01*
X1296Y1051D02*
X1359Y1051D01*
X1796Y1051D02*
X1859Y1051D01*
X2518Y1051D02*
X2581Y1051D01*
X3018Y1051D02*
X3081Y1051D01*
X73Y1050D02*
X138Y1050D01*
X573Y1050D02*
X638Y1050D01*
X1295Y1050D02*
X1360Y1050D01*
X1795Y1050D02*
X1860Y1050D01*
X2517Y1050D02*
X2582Y1050D01*
X3017Y1050D02*
X3082Y1050D01*
X73Y1049D02*
X139Y1049D01*
X572Y1049D02*
X639Y1049D01*
X1295Y1049D02*
X1361Y1049D01*
X1795Y1049D02*
X1861Y1049D01*
X2517Y1049D02*
X2583Y1049D01*
X3017Y1049D02*
X3083Y1049D01*
X72Y1048D02*
X139Y1048D01*
X572Y1048D02*
X639Y1048D01*
X1294Y1048D02*
X1361Y1048D01*
X1794Y1048D02*
X1861Y1048D01*
X2516Y1048D02*
X2583Y1048D01*
X3016Y1048D02*
X3083Y1048D01*
X71Y1047D02*
X140Y1047D01*
X571Y1047D02*
X640Y1047D01*
X1293Y1047D02*
X1362Y1047D01*
X1793Y1047D02*
X1862Y1047D01*
X2515Y1047D02*
X2584Y1047D01*
X3015Y1047D02*
X3084Y1047D01*
X71Y1046D02*
X141Y1046D01*
X571Y1046D02*
X641Y1046D01*
X1293Y1046D02*
X1363Y1046D01*
X1793Y1046D02*
X1863Y1046D01*
X2515Y1046D02*
X2585Y1046D01*
X3015Y1046D02*
X3085Y1046D01*
X70Y1045D02*
X141Y1045D01*
X570Y1045D02*
X641Y1045D01*
X1292Y1045D02*
X1363Y1045D01*
X1792Y1045D02*
X1863Y1045D01*
X2514Y1045D02*
X2585Y1045D01*
X3014Y1045D02*
X3085Y1045D01*
X69Y1044D02*
X142Y1044D01*
X569Y1044D02*
X642Y1044D01*
X1291Y1044D02*
X1364Y1044D01*
X1791Y1044D02*
X1864Y1044D01*
X2514Y1044D02*
X2586Y1044D01*
X3013Y1044D02*
X3086Y1044D01*
X69Y1043D02*
X142Y1043D01*
X569Y1043D02*
X642Y1043D01*
X1291Y1043D02*
X1364Y1043D01*
X1791Y1043D02*
X1864Y1043D01*
X2513Y1043D02*
X2586Y1043D01*
X3013Y1043D02*
X3086Y1043D01*
X68Y1042D02*
X143Y1042D01*
X568Y1042D02*
X643Y1042D01*
X1291Y1042D02*
X1365Y1042D01*
X1790Y1042D02*
X1865Y1042D01*
X2513Y1042D02*
X2587Y1042D01*
X3012Y1042D02*
X3087Y1042D01*
X68Y1041D02*
X143Y1041D01*
X568Y1041D02*
X643Y1041D01*
X1290Y1041D02*
X1365Y1041D01*
X1790Y1041D02*
X1865Y1041D01*
X2512Y1041D02*
X2587Y1041D01*
X3012Y1041D02*
X3087Y1041D01*
X68Y1040D02*
X144Y1040D01*
X568Y1040D02*
X643Y1040D01*
X1290Y1040D02*
X1366Y1040D01*
X1790Y1040D02*
X1866Y1040D01*
X2512Y1040D02*
X2588Y1040D01*
X3012Y1040D02*
X3088Y1040D01*
X67Y1039D02*
X144Y1039D01*
X567Y1039D02*
X644Y1039D01*
X1289Y1039D02*
X1366Y1039D01*
X1789Y1039D02*
X1866Y1039D01*
X2511Y1039D02*
X2588Y1039D01*
X3011Y1039D02*
X3088Y1039D01*
X67Y1038D02*
X144Y1038D01*
X567Y1038D02*
X644Y1038D01*
X1289Y1038D02*
X1366Y1038D01*
X1789Y1038D02*
X1866Y1038D01*
X2511Y1038D02*
X2588Y1038D01*
X3011Y1038D02*
X3088Y1038D01*
X67Y1037D02*
X145Y1037D01*
X567Y1037D02*
X644Y1037D01*
X1289Y1037D02*
X1367Y1037D01*
X1789Y1037D02*
X1867Y1037D01*
X2511Y1037D02*
X2589Y1037D01*
X3011Y1037D02*
X3089Y1037D01*
X66Y1036D02*
X145Y1036D01*
X566Y1036D02*
X645Y1036D01*
X1288Y1036D02*
X1367Y1036D01*
X1788Y1036D02*
X1867Y1036D01*
X2510Y1036D02*
X2589Y1036D01*
X3010Y1036D02*
X3089Y1036D01*
X66Y1035D02*
X145Y1035D01*
X566Y1035D02*
X645Y1035D01*
X1288Y1035D02*
X1367Y1035D01*
X1788Y1035D02*
X1867Y1035D01*
X2510Y1035D02*
X2589Y1035D01*
X3010Y1035D02*
X3089Y1035D01*
X66Y1034D02*
X145Y1034D01*
X566Y1034D02*
X645Y1034D01*
X1288Y1034D02*
X1367Y1034D01*
X1788Y1034D02*
X1867Y1034D01*
X2510Y1034D02*
X2589Y1034D01*
X3010Y1034D02*
X3089Y1034D01*
X66Y1033D02*
X146Y1033D01*
X566Y1033D02*
X645Y1033D01*
X1288Y1033D02*
X1368Y1033D01*
X1788Y1033D02*
X1867Y1033D01*
X2510Y1033D02*
X2590Y1033D01*
X3010Y1033D02*
X3090Y1033D01*
X66Y1032D02*
X146Y1032D01*
X565Y1032D02*
X646Y1032D01*
X1288Y1032D02*
X1368Y1032D01*
X1788Y1032D02*
X1868Y1032D01*
X2510Y1032D02*
X2590Y1032D01*
X3010Y1032D02*
X3090Y1032D01*
X65Y1031D02*
X146Y1031D01*
X565Y1031D02*
X646Y1031D01*
X1287Y1031D02*
X1368Y1031D01*
X1787Y1031D02*
X1868Y1031D01*
X2509Y1031D02*
X2590Y1031D01*
X3009Y1031D02*
X3090Y1031D01*
X65Y1030D02*
X146Y1030D01*
X565Y1030D02*
X646Y1030D01*
X1287Y1030D02*
X1368Y1030D01*
X1787Y1030D02*
X1868Y1030D01*
X2509Y1030D02*
X2590Y1030D01*
X3009Y1030D02*
X3090Y1030D01*
X65Y1029D02*
X146Y1029D01*
X565Y1029D02*
X646Y1029D01*
X1287Y1029D02*
X1368Y1029D01*
X1787Y1029D02*
X1868Y1029D01*
X2509Y1029D02*
X2590Y1029D01*
X3009Y1029D02*
X3090Y1029D01*
X65Y1028D02*
X146Y1028D01*
X565Y1028D02*
X646Y1028D01*
X1287Y1028D02*
X1368Y1028D01*
X1787Y1028D02*
X1868Y1028D01*
X2509Y1028D02*
X2590Y1028D01*
X3009Y1028D02*
X3090Y1028D01*
X65Y1027D02*
X146Y1027D01*
X565Y1027D02*
X646Y1027D01*
X1287Y1027D02*
X1368Y1027D01*
X1787Y1027D02*
X1868Y1027D01*
X2509Y1027D02*
X2590Y1027D01*
X3009Y1027D02*
X3090Y1027D01*
X65Y1026D02*
X146Y1026D01*
X565Y1026D02*
X646Y1026D01*
X1287Y1026D02*
X1368Y1026D01*
X1787Y1026D02*
X1868Y1026D01*
X2509Y1026D02*
X2590Y1026D01*
X3009Y1026D02*
X3090Y1026D01*
X65Y1025D02*
X146Y1025D01*
X565Y1025D02*
X646Y1025D01*
X1287Y1025D02*
X1368Y1025D01*
X1787Y1025D02*
X1868Y1025D01*
X2509Y1025D02*
X2590Y1025D01*
X3009Y1025D02*
X3090Y1025D01*
X65Y1024D02*
X146Y1024D01*
X565Y1024D02*
X646Y1024D01*
X1287Y1024D02*
X1368Y1024D01*
X1787Y1024D02*
X1868Y1024D01*
X2509Y1024D02*
X2590Y1024D01*
X3009Y1024D02*
X3090Y1024D01*
X65Y1023D02*
X146Y1023D01*
X565Y1023D02*
X646Y1023D01*
X1287Y1023D02*
X1368Y1023D01*
X1787Y1023D02*
X1868Y1023D01*
X2509Y1023D02*
X2590Y1023D01*
X3009Y1023D02*
X3090Y1023D01*
X65Y1022D02*
X146Y1022D01*
X565Y1022D02*
X646Y1022D01*
X1287Y1022D02*
X1368Y1022D01*
X1787Y1022D02*
X1868Y1022D01*
X2509Y1022D02*
X2590Y1022D01*
X3009Y1022D02*
X3090Y1022D01*
X65Y1021D02*
X146Y1021D01*
X565Y1021D02*
X646Y1021D01*
X1287Y1021D02*
X1368Y1021D01*
X1787Y1021D02*
X1868Y1021D01*
X2509Y1021D02*
X2590Y1021D01*
X3009Y1021D02*
X3090Y1021D01*
X65Y1020D02*
X146Y1020D01*
X565Y1020D02*
X646Y1020D01*
X1287Y1020D02*
X1368Y1020D01*
X1787Y1020D02*
X1868Y1020D01*
X2509Y1020D02*
X2590Y1020D01*
X3009Y1020D02*
X3090Y1020D01*
X65Y1019D02*
X146Y1019D01*
X565Y1019D02*
X646Y1019D01*
X1287Y1019D02*
X1368Y1019D01*
X1787Y1019D02*
X1868Y1019D01*
X2510Y1019D02*
X2590Y1019D01*
X3009Y1019D02*
X3090Y1019D01*
X66Y1018D02*
X146Y1018D01*
X566Y1018D02*
X646Y1018D01*
X1288Y1018D02*
X1368Y1018D01*
X1788Y1018D02*
X1868Y1018D01*
X2510Y1018D02*
X2590Y1018D01*
X3010Y1018D02*
X3090Y1018D01*
X66Y1017D02*
X145Y1017D01*
X566Y1017D02*
X645Y1017D01*
X1288Y1017D02*
X1367Y1017D01*
X1788Y1017D02*
X1867Y1017D01*
X2510Y1017D02*
X2590Y1017D01*
X3010Y1017D02*
X3089Y1017D01*
X66Y1016D02*
X145Y1016D01*
X566Y1016D02*
X645Y1016D01*
X1288Y1016D02*
X1367Y1016D01*
X1788Y1016D02*
X1867Y1016D01*
X2510Y1016D02*
X2589Y1016D01*
X3010Y1016D02*
X3089Y1016D01*
X66Y1015D02*
X145Y1015D01*
X566Y1015D02*
X645Y1015D01*
X1288Y1015D02*
X1367Y1015D01*
X1788Y1015D02*
X1867Y1015D01*
X2510Y1015D02*
X2589Y1015D01*
X3010Y1015D02*
X3089Y1015D01*
X67Y1014D02*
X145Y1014D01*
X566Y1014D02*
X645Y1014D01*
X1289Y1014D02*
X1367Y1014D01*
X1788Y1014D02*
X1867Y1014D01*
X2511Y1014D02*
X2589Y1014D01*
X3011Y1014D02*
X3089Y1014D01*
X67Y1013D02*
X144Y1013D01*
X567Y1013D02*
X644Y1013D01*
X1289Y1013D02*
X1366Y1013D01*
X1789Y1013D02*
X1866Y1013D01*
X2511Y1013D02*
X2589Y1013D01*
X3011Y1013D02*
X3088Y1013D01*
X67Y1012D02*
X144Y1012D01*
X567Y1012D02*
X644Y1012D01*
X1289Y1012D02*
X1366Y1012D01*
X1789Y1012D02*
X1866Y1012D01*
X2511Y1012D02*
X2588Y1012D01*
X3011Y1012D02*
X3088Y1012D01*
X67Y1011D02*
X144Y1011D01*
X567Y1011D02*
X644Y1011D01*
X1290Y1011D02*
X1366Y1011D01*
X1789Y1011D02*
X1866Y1011D01*
X2512Y1011D02*
X2588Y1011D01*
X3011Y1011D02*
X3088Y1011D01*
X68Y1010D02*
X143Y1010D01*
X568Y1010D02*
X643Y1010D01*
X1290Y1010D02*
X1365Y1010D01*
X1790Y1010D02*
X1865Y1010D01*
X2512Y1010D02*
X2587Y1010D01*
X3012Y1010D02*
X3087Y1010D01*
X68Y1009D02*
X143Y1009D01*
X568Y1009D02*
X643Y1009D01*
X1290Y1009D02*
X1365Y1009D01*
X1790Y1009D02*
X1865Y1009D01*
X2512Y1009D02*
X2587Y1009D01*
X3012Y1009D02*
X3087Y1009D01*
X69Y1008D02*
X143Y1008D01*
X569Y1008D02*
X642Y1008D01*
X1291Y1008D02*
X1365Y1008D01*
X1791Y1008D02*
X1864Y1008D01*
X2513Y1008D02*
X2587Y1008D01*
X3013Y1008D02*
X3087Y1008D01*
X69Y1007D02*
X142Y1007D01*
X569Y1007D02*
X642Y1007D01*
X1291Y1007D02*
X1364Y1007D01*
X1791Y1007D02*
X1864Y1007D01*
X2513Y1007D02*
X2586Y1007D01*
X3013Y1007D02*
X3086Y1007D01*
X70Y1006D02*
X142Y1006D01*
X570Y1006D02*
X641Y1006D01*
X1292Y1006D02*
X1364Y1006D01*
X1792Y1006D02*
X1863Y1006D01*
X2514Y1006D02*
X2586Y1006D01*
X3014Y1006D02*
X3086Y1006D01*
X70Y1005D02*
X141Y1005D01*
X570Y1005D02*
X641Y1005D01*
X1292Y1005D02*
X1363Y1005D01*
X1792Y1005D02*
X1863Y1005D01*
X2514Y1005D02*
X2585Y1005D01*
X3014Y1005D02*
X3085Y1005D01*
X71Y1004D02*
X140Y1004D01*
X571Y1004D02*
X640Y1004D01*
X1293Y1004D02*
X1362Y1004D01*
X1793Y1004D02*
X1862Y1004D01*
X2515Y1004D02*
X2584Y1004D01*
X3015Y1004D02*
X3084Y1004D01*
X71Y1003D02*
X140Y1003D01*
X571Y1003D02*
X640Y1003D01*
X1294Y1003D02*
X1362Y1003D01*
X1793Y1003D02*
X1862Y1003D01*
X2516Y1003D02*
X2584Y1003D01*
X3016Y1003D02*
X3084Y1003D01*
X72Y1002D02*
X139Y1002D01*
X572Y1002D02*
X639Y1002D01*
X1294Y1002D02*
X1361Y1002D01*
X1794Y1002D02*
X1861Y1002D01*
X2516Y1002D02*
X2583Y1002D01*
X3016Y1002D02*
X3083Y1002D01*
X73Y1001D02*
X138Y1001D01*
X573Y1001D02*
X638Y1001D01*
X1295Y1001D02*
X1360Y1001D01*
X1795Y1001D02*
X1860Y1001D01*
X2517Y1001D02*
X2582Y1001D01*
X3017Y1001D02*
X3082Y1001D01*
X74Y1000D02*
X138Y1000D01*
X574Y1000D02*
X638Y1000D01*
X1296Y1000D02*
X1360Y1000D01*
X1796Y1000D02*
X1860Y1000D01*
X2518Y1000D02*
X2582Y1000D01*
X3018Y1000D02*
X3082Y1000D01*
X74Y999D02*
X137Y999D01*
X574Y999D02*
X637Y999D01*
X1296Y999D02*
X1359Y999D01*
X1796Y999D02*
X1859Y999D01*
X2518Y999D02*
X2581Y999D01*
X3018Y999D02*
X3081Y999D01*
X75Y998D02*
X136Y998D01*
X575Y998D02*
X636Y998D01*
X1297Y998D02*
X1358Y998D01*
X1797Y998D02*
X1858Y998D01*
X2519Y998D02*
X2580Y998D01*
X3019Y998D02*
X3080Y998D01*
X76Y997D02*
X135Y997D01*
X576Y997D02*
X635Y997D01*
X1298Y997D02*
X1357Y997D01*
X1798Y997D02*
X1857Y997D01*
X2520Y997D02*
X2579Y997D01*
X3020Y997D02*
X3079Y997D01*
X77Y996D02*
X134Y996D01*
X577Y996D02*
X634Y996D01*
X1299Y996D02*
X1356Y996D01*
X1799Y996D02*
X1856Y996D01*
X2521Y996D02*
X2578Y996D01*
X3021Y996D02*
X3078Y996D01*
X78Y995D02*
X133Y995D01*
X578Y995D02*
X633Y995D01*
X1300Y995D02*
X1355Y995D01*
X1800Y995D02*
X1855Y995D01*
X2522Y995D02*
X2577Y995D01*
X3022Y995D02*
X3077Y995D01*
X79Y994D02*
X132Y994D01*
X579Y994D02*
X632Y994D01*
X1301Y994D02*
X1354Y994D01*
X1801Y994D02*
X1854Y994D01*
X2523Y994D02*
X2576Y994D01*
X3023Y994D02*
X3076Y994D01*
X81Y993D02*
X131Y993D01*
X580Y993D02*
X631Y993D01*
X1303Y993D02*
X1353Y993D01*
X1802Y993D02*
X1853Y993D01*
X2525Y993D02*
X2575Y993D01*
X3025Y993D02*
X3075Y993D01*
X82Y992D02*
X129Y992D01*
X582Y992D02*
X629Y992D01*
X1304Y992D02*
X1351Y992D01*
X1804Y992D02*
X1851Y992D01*
X2526Y992D02*
X2573Y992D01*
X3026Y992D02*
X3073Y992D01*
X83Y991D02*
X128Y991D01*
X583Y991D02*
X628Y991D01*
X1305Y991D02*
X1350Y991D01*
X1805Y991D02*
X1850Y991D01*
X2527Y991D02*
X2572Y991D01*
X3027Y991D02*
X3072Y991D01*
X85Y990D02*
X126Y990D01*
X585Y990D02*
X626Y990D01*
X1307Y990D02*
X1348Y990D01*
X1807Y990D02*
X1848Y990D01*
X2529Y990D02*
X2570Y990D01*
X3029Y990D02*
X3070Y990D01*
X87Y989D02*
X125Y989D01*
X586Y989D02*
X625Y989D01*
X1309Y989D02*
X1347Y989D01*
X1808Y989D02*
X1847Y989D01*
X2531Y989D02*
X2569Y989D01*
X3031Y989D02*
X3069Y989D01*
X89Y988D02*
X123Y988D01*
X588Y988D02*
X623Y988D01*
X1311Y988D02*
X1345Y988D01*
X1810Y988D02*
X1845Y988D01*
X2533Y988D02*
X2567Y988D01*
X3033Y988D02*
X3067Y988D01*
X91Y987D02*
X121Y987D01*
X591Y987D02*
X620Y987D01*
X1313Y987D02*
X1343Y987D01*
X1813Y987D02*
X1842Y987D01*
X2535Y987D02*
X2565Y987D01*
X3035Y987D02*
X3064Y987D01*
X94Y986D02*
X118Y986D01*
X593Y986D02*
X618Y986D01*
X1316Y986D02*
X1340Y986D01*
X1816Y986D02*
X1840Y986D01*
X2538Y986D02*
X2562Y986D01*
X3038Y986D02*
X3062Y986D01*
X97Y985D02*
X114Y985D01*
X597Y985D02*
X614Y985D01*
X1319Y985D02*
X1336Y985D01*
X1819Y985D02*
X1836Y985D01*
X2541Y985D02*
X2558Y985D01*
X3041Y985D02*
X3058Y985D01*
D02*
G04 End of Mask1*
M02*