; NON-PLATED HOLES START AT T1
; THROUGH (PLATED) HOLES START AT T100
M48
INCH
T100C0.037722
T101C0.038000
T102C0.037750
T103C0.037694
T104C0.015748
T105C0.035000
%
T100
X006061Y016247
X018283Y014247
X030505Y036469
X025505Y011247
X001061Y032469
X030505Y027358
X013283Y021358
X006061Y023358
X025505Y032469
X006061Y014247
X018283Y012247
X030505Y034469
X030505Y025358
X001061Y021358
X013283Y033469
X030505Y016247
X013283Y010247
X006061Y012247
X025505Y021358
X018283Y038469
X030505Y023358
X001061Y033469
X030505Y014247
X001061Y010247
X013283Y022358
X006061Y038469
X018283Y036469
X025505Y033469
X025505Y010247
X018283Y027358
X030505Y012247
X001061Y022358
X013283Y011247
X006061Y036469
X018283Y034469
X006061Y027358
X018283Y025358
X025505Y022358
X018283Y016247
X030505Y038469
X013283Y032469
X001061Y011247
X006061Y034469
X006061Y025358
X018283Y023358
T101
X006722Y002499
X015722Y002499
X009722Y003499
X028777Y002444
X037240Y002444
X022166Y001499
X018722Y003499
X008314Y033490
X009722Y002499
X010722Y003499
X028777Y001444
X020537Y014268
X032759Y014268
X018722Y002499
X010722Y002499
X004722Y003499
X020537Y013268
X032759Y013268
X013722Y003499
X008314Y014268
X004722Y002499
X020537Y012268
X032759Y012268
X013722Y002499
X007722Y003499
X008314Y013268
X016722Y003499
X020537Y011268
X032759Y011268
X020537Y025379
X032759Y025379
X007722Y002499
X008314Y012268
X016722Y002499
X019722Y003499
X020537Y024379
X032759Y024379
X002722Y003499
X011722Y003499
X008314Y011268
X008314Y025379
X019722Y002499
X020722Y003499
X036240Y004444
X020537Y023379
X032759Y023379
X002722Y002499
X011722Y002499
X005722Y003499
X008314Y024379
X032111Y002444
X020722Y002499
X014722Y003499
X025444Y002444
X020537Y022379
X032759Y022379
X005722Y002499
X008314Y023379
X008722Y003499
X032111Y001444
X014722Y002499
X036240Y002444
X017722Y003499
X025444Y001444
X020537Y036490
X032759Y036490
X008314Y022379
X008722Y002499
X017722Y002499
X020537Y035490
X032759Y035490
X008314Y036490
X003722Y003499
X012722Y003499
X020537Y034490
X032759Y034490
X037240Y004444
X008314Y035490
X003722Y002499
X012722Y002499
X006722Y003499
X020537Y033490
X015722Y003499
X032759Y033490
X022166Y002499
X008314Y034490
T102
X013283Y016247
X025505Y023358
X025505Y037469
X030505Y031469
X001061Y031469
X013283Y031469
X006061Y013247
X001061Y015247
X018283Y013247
X013283Y015247
X025505Y036469
X006061Y009247
X018283Y009247
X001061Y014247
X013283Y014247
X025505Y035469
X030505Y013247
X001061Y013247
X013283Y013247
X001061Y027358
X025505Y020357
X013283Y027358
X025505Y034469
X030505Y009247
X001061Y009246
X013283Y009246
X001061Y012247
X013283Y012247
X006061Y024358
X001061Y026358
X018283Y024358
X013283Y026358
X001061Y025358
X013283Y025358
X025505Y016247
X030505Y024358
X001061Y024358
X013283Y024358
X001061Y038469
X013283Y038469
X025505Y031469
X025505Y015247
X001061Y023358
X013283Y023358
X006061Y035469
X001061Y037469
X018283Y035469
X013283Y037469
X025505Y014247
X006061Y020358
X018283Y020358
X001061Y036469
X013283Y036469
X025505Y013247
X025505Y027358
X025505Y009246
X030505Y035469
X001061Y035469
X013283Y035469
X025505Y012247
X025505Y026358
X030505Y020358
X001061Y020357
X013283Y020357
X001061Y034469
X013283Y034469
X025505Y025358
X006061Y031469
X018283Y031469
X025505Y024358
X025505Y038469
X001061Y016247
T103
X018283Y021358
X018283Y033469
X006061Y021358
X006061Y033469
X030505Y037469
X030505Y010247
X030505Y022358
X018283Y026358
X018283Y011247
X006061Y026358
X006061Y011247
X018283Y032469
X030505Y015247
X006061Y032469
X030505Y021358
X030505Y033469
X018283Y037469
X018283Y010247
X018283Y022358
X006061Y037469
X006061Y010247
X006061Y022358
X030505Y026358
X030505Y011247
X018283Y015247
X030505Y032469
X006061Y015247
T104
X002722Y005082
T105
X026777Y007055
X031222Y007055
X026777Y005055
X022333Y007055
X031222Y005055
X022333Y005055
T00
M30
