; NON-PLATED HOLES START AT T1
; THROUGH (PLATED) HOLES START AT T100
M48
INCH
T100C0.037694
T101C0.038000
T102C0.038194
T103C0.035000
T104C0.037722
T105C0.037750
%
T100
X008497Y022665
X036736Y017828
X028172Y022571
X016958Y012828
X016958Y022665
X036753Y026665
X008428Y012896
X016958Y017828
X028275Y013828
X008497Y021665
X028172Y021571
X036736Y013828
X016958Y021665
X008429Y017896
X008497Y026665
X036753Y022665
X028172Y026571
X016958Y026665
X028275Y012828
X016958Y013828
X036736Y012828
X028275Y017828
X036753Y021665
X008429Y013896
T101
X036609Y030220
X020319Y001294
X018593Y016765
X037626Y002362
X037609Y034220
X018593Y015765
X037626Y001362
X037609Y033220
X022755Y006003
X038482Y025543
X018593Y014765
X037609Y032220
X038482Y024543
X018593Y013765
X010148Y025654
X037609Y031220
X001464Y002362
X038482Y023543
X010148Y024654
X037609Y030220
X017200Y006003
X023259Y002362
X001464Y001362
X036609Y037220
X038482Y022543
X010148Y023654
X010148Y016877
X029926Y025432
X023259Y001362
X038482Y016654
X036609Y036220
X010148Y022654
X023755Y006003
X010148Y015876
X029926Y024432
X038482Y015654
X036609Y035220
X010148Y014876
X029926Y023432
X038482Y014654
X029926Y016654
X036609Y034220
X010148Y013876
X018593Y025654
X029926Y022432
X038482Y013654
X029926Y015654
X036609Y033220
X018200Y006003
X018593Y024654
X037609Y037220
X029926Y014654
X036609Y032220
X018593Y023654
X037609Y036220
X029926Y013654
X036609Y031220
X020319Y002294
X018593Y022654
X037609Y035220
T102
X004299Y034984
X010299Y033984
X020299Y022984
X013299Y034984
X001299Y029984
X020299Y018984
X001299Y004384
X004299Y033984
X020299Y021984
X007299Y034984
X013299Y033984
X001299Y028984
X016299Y034984
X020299Y017984
X020299Y020984
X007299Y033984
X001299Y027984
X016299Y033984
X020299Y016984
X001299Y030984
X002299Y034984
X001299Y026984
X011299Y034984
X001299Y025984
X002299Y033984
X005299Y034984
X011299Y033984
X020299Y014984
X014299Y034984
X001299Y024984
X020299Y029984
X005299Y033984
X020299Y013984
X008299Y034984
X014299Y033984
X020299Y032984
X017299Y034984
X020299Y009984
X001299Y023984
X020299Y028984
X020299Y012984
X008299Y033984
X001299Y019984
X020299Y031984
X017299Y033984
X020299Y008984
X020299Y027984
X001299Y013384
X020299Y011984
X003299Y034984
X001299Y018984
X020299Y030984
X001299Y009384
X012299Y034984
X020299Y007984
X001299Y021984
X020299Y026984
X001299Y012384
X020299Y010984
X003299Y033984
X001299Y017984
X006299Y034984
X001299Y008384
X012299Y033984
X015299Y034984
X001299Y020984
X020299Y025984
X001299Y011384
X001299Y016984
X001299Y007384
X006299Y033984
X009299Y034984
X015299Y033984
X001299Y010384
X018299Y034984
X001299Y015984
X001299Y034984
X001299Y006384
X010299Y034984
X009299Y033984
X020299Y023984
X018299Y033984
X001299Y014984
X020299Y019984
X001299Y033984
X001299Y005384
T103
X035444Y034258
X033444Y033147
X005102Y001401
X033444Y030147
X033444Y035258
X035444Y031147
X035444Y036258
X034264Y001401
X005102Y003401
X033444Y032147
X033444Y037258
X035444Y033147
X033444Y034258
X035444Y030147
X035444Y035258
X034264Y003401
X033444Y031147
X033444Y036258
X035444Y032147
X035444Y037258
T104
X003428Y013896
X028172Y023571
X016958Y025665
X008497Y025665
X008429Y016896
X031736Y013828
X036753Y025665
X011958Y013828
X023275Y013828
X023172Y021571
X036736Y018828
X016958Y023665
X016958Y018828
X028275Y018828
X008497Y023665
X008429Y014896
X036753Y023665
X011958Y021665
X003497Y021665
X036736Y016828
X031753Y021665
X016958Y016828
X028275Y016828
X023172Y022571
X036736Y014828
X016958Y014828
X003428Y012896
X028275Y014828
X028172Y027571
X031736Y012828
X011958Y012828
X023275Y012828
X011958Y022665
X003497Y022665
X031753Y022665
X028172Y025571
X016958Y027665
X008497Y027665
X008429Y018896
X036753Y027665
T105
X011958Y015828
X023275Y015828
X023172Y023571
X003497Y020665
X036736Y015828
X016958Y020665
X011958Y025665
X031753Y020665
X016958Y015828
X028275Y015828
X008497Y020665
X003497Y025665
X008429Y011896
X036753Y020665
X031753Y025665
X003428Y018896
X031736Y018828
X011958Y023665
X003428Y011896
X011958Y018828
X023275Y018828
X023172Y026571
X003497Y023665
X031753Y023665
X003428Y016896
X031736Y011827
X011958Y011827
X023275Y011827
X036736Y011828
X031736Y016828
X016958Y011828
X028275Y011828
X011958Y016828
X023275Y016828
X023172Y024571
X011958Y026665
X003428Y014896
X028172Y024571
X003497Y026665
X031753Y026665
X031736Y014828
X011958Y014828
X023275Y014828
X011958Y024665
X023172Y027571
X003497Y024665
X016958Y024665
X031753Y024665
X003428Y017896
X008497Y024665
X008429Y015896
X036753Y024665
X023172Y020571
X031736Y017828
X028172Y020571
X011958Y017828
X023275Y017828
X023172Y025571
X011958Y027665
X003428Y015896
X003497Y027665
X031753Y027665
X031736Y015828
X011958Y020665
T00
M30
